PathFileType	4	(X/Y/Z)	RBDS012\RBDS012runT25.trc
DataRate	CameraRate	NumFrames	NumMarkers	Units	OrigDataRate	OrigDataStartFrame	OrigNumFrames
150.000000	150.000000	4	33	mm	150.000000	3937	4500
Frame#	Time	L.ASIS			L.Heel.Bottom			L.Heel.Lateral			L.Heel.Top			L.Iliac.Crest			L.MT1			L.MT5			L.PSIS			L.Shank.Bottom.Lateral			L.Shank.Bottom.Medial			L.Shank.Top.Lateral			L.Shank.Top.Medial			L.Thigh.Bottom.Lateral			L.Thigh.Bottom.Medial			L.Thigh.Top.Lateral			L.Thigh.Top.Medial			R.ASIS			R.ASY			R.Heel.Bottom			R.Heel.Lateral			R.Heel.Top			R.Iliac.Crest			R.MT1			R.MT5			R.PSIS			R.Shank.Bottom.Lateral			R.Shank.Bottom.Medial			R.Shank.Top.Lateral			R.Shank.Top.Medial			R.Thigh.Bottom.Lateral			R.Thigh.Bottom.Medial			R.Thigh.Top.Lateral			R.Thigh.Top.Medial			
		X1	Y1	Z1	X2	Y2	Z2	X3	Y3	Z3	X4	Y4	Z4	X5	Y5	Z5	X6	Y6	Z6	X7	Y7	Z7	X8	Y8	Z8	X9	Y9	Z9	X10	Y10	Z10	X11	Y11	Z11	X12	Y12	Z12	X13	Y13	Z13	X14	Y14	Z14	X15	Y15	Z15	X16	Y16	Z16	X17	Y17	Z17	X18	Y18	Z18	X19	Y19	Z19	X20	Y20	Z20	X21	Y21	Z21	X22	Y22	Z22	X23	Y23	Z23	X24	Y24	Z24	X25	Y25	Z25	X26	Y26	Z26	X27	Y27	Z27	X28	Y28	Z28	X29	Y29	Z29	X30	Y30	Z30	X31	Y31	Z31	X32	Y32	Z32	X33	Y33	Z33	

3938	26.24666666666667	2199.841951032762	988.2457628613431	893.4511097773279	1811.194349709327	63.80416021322544	1008.135044088761	1840.214094836542	71.29832260974671	959.6920666249488	1828.810073516557	111.3870886200752	1005.691481522399	2159.724818176203	1061.979301633484	865.348092982449	2031.815650280763	40.3970773174393	1040.135840433589	2000.616520309422	45.18075653393654	924.6364076973859	2043.080178142468	1057.163927585979	991.5083135754021	1940.52892409612	183.4096518934613	943.6528683302123	1899.874621704995	207.4686529601064	972.2695774793979	1968.429541959978	256.1254215303567	923.2151071726897	1929.31920447804	280.2671938543622	951.712093870549	2133.080976285008	605.261850397041	875.3713632044382	2066.744651572222	603.0567493179969	905.4627664322157	2116.137771210661	713.0412601520337	855.7879421698311	2056.547348863746	711.9455187416959	888.8548201268499	2211.64094386823	996.5839702254686	1166.856812447686	2038.953156846657	224.0283088412025	1102.461716937738	1866.473543358066	327.4561970337959	1105.173462317571	1893.344396384885	320.8188422238841	1141.71380467415	1911.154461029128	352.5133316945586	1105.2775456217	2167.191210957336	1062.111948932471	1203.1224478661	2026.350772941445	174.5192638865657	1052.97981645137	2004.782479287762	185.4449948660901	1170.014857584977	2044.489367336795	1051.539200910652	1096.183751310926	2032.127090167405	362.1855554901455	1158.059028736592	2014.286341319966	400.8204585313907	1129.209946447993	2099.072765658251	410.2991562180797	1178.277817891455	2076.472575773091	448.7067183345495	1149.024163281445	2287.457702250676	626.5851875528608	1214.847111086766	2238.820008159717	601.0269086198886	1165.955964120382	2225.50800302075	716.4496173369466	1226.284483127203	2177.003485553058	691.188256456365	1183.40230751711	
3939	26.25333333333333	2200.900359304431	993.0128520588985	893.0137070781406	1796.367501447883	70.61936187877534	1008.251456459006	1825.531443963009	76.73305931172719	959.7335289822213	1815.344794101863	117.5509528302698	1005.321852323265	2162.217650360625	1067.503411388793	865.9033162769567	2015.283217356122	40.75994806046149	1040.106033103603	1984.325974542108	45.53772385859115	924.8036157284041	2044.616124771588	1062.250425387913	991.0183661452472	1926.093206704215	188.5883123595322	943.229699535072	1885.797394846173	212.4137101438846	972.5706559404061	1953.812424403863	261.4852907939639	923.1049702141731	1914.943525895445	285.3725711478301	952.1840942706156	2123.05755150551	609.3170537949445	875.8617659022125	2056.64545818325	609.2577539427205	905.8953295817756	2109.590003057122	717.6021168392485	856.3322931252141	2050.001076067465	718.4533325852616	889.4605008635964	2212.364079550101	1002.477336309629	1166.218937845968	2062.731705044276	215.1151872030727	1103.327883145439	1884.314539557269	307.6847880357167	1102.619403161989	1911.003476255946	302.9667783524351	1139.536898129104	1927.218787329302	335.5214274592898	1103.1095452539	2167.978161459568	1068.188663292779	1203.302644319674	2053.989811212115	164.5336923945769	1054.043403022507	2030.208333706936	175.1392191515742	1170.515038394731	2045.43859851195	1057.21622512826	1096.036556869512	2047.221989215626	352.9990092902349	1156.903173104831	2027.339951365177	390.3090836291792	1127.560088428166	2111.000518915695	405.237883043688	1177.223791682845	2086.365031343435	442.0022145020273	1147.485558942606	2292.017095085597	634.7892794407604	1214.558586907925	2243.347002827527	608.4625812300932	1166.209151566257	2229.018779150079	723.8531314004783	1226.346453575921	2180.494574891807	697.924141531752	1183.81996666524	
3940	26.26	2202.15523931799	997.8721425097693	892.6913155347513	1782.0872507719	78.15304236310732	1008.268114207528	1811.3878160369	82.77252812066445	959.6953744219259	1802.580837553072	124.31062113505	1004.873963113045	2164.768818314339	1073.04286213992	866.4702753590742	1999.031183923101	41.16649882734761	1040.011313457542	1968.348127430752	45.97184893279849	924.9109316158522	2046.309505858872	1067.314445038312	990.5314934707123	1912.253381819412	194.1160871577587	942.6798071132187	1872.331570430773	217.6523326500806	972.8008562698197	1939.688398000092	267.2410962521058	922.9046270378753	1901.113367229216	290.8140962406025	952.6405758894443	2113.515180538021	613.7357050432772	876.3136245945277	2047.043196270462	615.7790481771318	906.1845886728569	2103.513347199548	722.4016997972066	856.8314469047533	2043.913600752309	725.1543310434638	889.8942980137647	2213.235636377552	1008.442021884151	1165.639118719774	2087.051402713422	206.474076814914	1104.357588478848	1903.270002379333	287.603724109354	1100.006354961376	1929.629533481698	284.9056651424174	1137.3262972892	1944.205500656857	318.1442136598523	1100.816196208373	2168.939005347499	1074.408923519622	1203.486357743515	2082.262483019314	154.9410306293378	1055.42537050552	2056.208030597205	165.3002427598375	1171.247290443682	2046.558229342338	1062.861409357753	1095.900986348829	2062.689704977005	343.5390250184751	1155.685790842124	2040.859225900326	379.3655517485313	1125.804257866293	2122.993262579238	399.761648173516	1176.099712175711	2096.41972940908	434.7359202172751	1145.831197712941	2295.973778422218	642.6186433691474	1214.173476814094	2247.07537325392	615.5452634466988	1166.599919647765	2232.212029203715	731.0661910470578	1226.274899592068	2183.541983788975	704.5668599884854	1184.229217845195	
3941	26.26666666666667	2203.586655818156	1002.745446987479	892.5013923390934	1768.396542741559	86.35271063447838	1008.143667335558	1797.814178135879	89.39400014779972	959.538868519019	1790.534489719085	131.6138509409217	1004.323711631855	2167.357975571964	1078.501068818085	867.0378577059491	1983.104242622713	41.65278761267409	1039.836628185382	1952.721570379131	46.5315342768455	924.9369862499574	2048.134572003262	1072.301987502136	990.0673728517263	1899.067486621013	199.9356953266125	941.9967377357078	1859.521728072541	223.1387182132353	972.9265934940425	1926.132061676696	273.3256528047772	922.6042250965583	1887.896970304653	296.5367783539435	953.0508724676499	2104.492667780866	618.4536553480727	876.7320787520458	2037.983181114768	622.5480079997559	906.3509950990355	2097.91696948334	727.3736309274976	857.2755776366996	2038.299194521906	731.9754646608155	890.1596158752127	2214.254934606718	1014.423202901424	1165.14472715145	2111.860656091201	198.1872622333783	1105.512514498832	1923.357114478018	267.3515347811679	1097.460609893466	1949.250824091421	266.7491036145668	1135.180773849283	1962.147525257571	300.4975953065449	1098.49735932769	2170.032183386855	1080.694075749789	1203.650153749783	2111.088529212664	145.8670660927178	1057.084680234213	2082.750193798213	155.9969751854759	1172.195950573946	2047.829892747674	1068.40507240736	1095.778338887802	2078.548672094762	333.8552966753956	1154.46248134258	2054.876873876109	368.0556242555643	1124.011456493736	2135.087438309552	393.8805917712643	1174.952819170891	2106.690435723065	426.9339401936349	1144.118654095786	2299.307258544884	649.9562868226982	1213.668728783603	2249.989558009276	622.1581286420101	1167.099769822356	2235.071315123069	737.9868045465905	1226.014327088631	2186.127999216009	711.0063169797955	1184.588649839049	
